<mxfile host="app.diagrams.net" agent="Mozilla/5.0 (Windows NT 10.0; Win64; x64) AppleWebKit/537.36 (KHTML, like Gecko) Chrome/136.0.0.0 Safari/537.36" version="27.0.5">
  <diagram id="C5RBs43oDa-KdzZeNtuy" name="Page-1">
    <mxGraphModel dx="2728" dy="1047" grid="1" gridSize="10" guides="1" tooltips="1" connect="1" arrows="1" fold="1" page="1" pageScale="1" pageWidth="827" pageHeight="1169" math="0" shadow="0">
      <root>
        <mxCell id="WIyWlLk6GJQsqaUBKTNV-0" />
        <mxCell id="WIyWlLk6GJQsqaUBKTNV-1" parent="WIyWlLk6GJQsqaUBKTNV-0" />
        <mxCell id="nEV8NIuV4L0AE3yYRl37-46" style="edgeStyle=orthogonalEdgeStyle;rounded=0;orthogonalLoop=1;jettySize=auto;html=1;entryX=0;entryY=0.5;entryDx=0;entryDy=0;" edge="1" parent="WIyWlLk6GJQsqaUBKTNV-1" source="nEV8NIuV4L0AE3yYRl37-39" target="nEV8NIuV4L0AE3yYRl37-40">
          <mxGeometry relative="1" as="geometry" />
        </mxCell>
        <mxCell id="nEV8NIuV4L0AE3yYRl37-63" style="edgeStyle=orthogonalEdgeStyle;rounded=0;orthogonalLoop=1;jettySize=auto;html=1;exitX=0;exitY=0.5;exitDx=0;exitDy=0;entryX=1;entryY=0.5;entryDx=0;entryDy=0;" edge="1" parent="WIyWlLk6GJQsqaUBKTNV-1" source="nEV8NIuV4L0AE3yYRl37-39" target="nEV8NIuV4L0AE3yYRl37-51">
          <mxGeometry relative="1" as="geometry" />
        </mxCell>
        <mxCell id="nEV8NIuV4L0AE3yYRl37-39" value="A" style="ellipse;whiteSpace=wrap;html=1;" vertex="1" parent="WIyWlLk6GJQsqaUBKTNV-1">
          <mxGeometry x="70" y="370" width="60" height="60" as="geometry" />
        </mxCell>
        <mxCell id="nEV8NIuV4L0AE3yYRl37-47" style="edgeStyle=orthogonalEdgeStyle;rounded=0;orthogonalLoop=1;jettySize=auto;html=1;exitX=0.5;exitY=1;exitDx=0;exitDy=0;entryX=0.5;entryY=0;entryDx=0;entryDy=0;" edge="1" parent="WIyWlLk6GJQsqaUBKTNV-1" source="nEV8NIuV4L0AE3yYRl37-40" target="nEV8NIuV4L0AE3yYRl37-41">
          <mxGeometry relative="1" as="geometry" />
        </mxCell>
        <mxCell id="nEV8NIuV4L0AE3yYRl37-40" value="Registra productos" style="rounded=1;whiteSpace=wrap;html=1;" vertex="1" parent="WIyWlLk6GJQsqaUBKTNV-1">
          <mxGeometry x="320" y="370" width="120" height="60" as="geometry" />
        </mxCell>
        <mxCell id="nEV8NIuV4L0AE3yYRl37-48" style="edgeStyle=orthogonalEdgeStyle;rounded=0;orthogonalLoop=1;jettySize=auto;html=1;exitX=0;exitY=0.5;exitDx=0;exitDy=0;entryX=1;entryY=0.5;entryDx=0;entryDy=0;" edge="1" parent="WIyWlLk6GJQsqaUBKTNV-1" source="nEV8NIuV4L0AE3yYRl37-41" target="nEV8NIuV4L0AE3yYRl37-45">
          <mxGeometry relative="1" as="geometry">
            <mxPoint x="290" y="545.6666666666667" as="targetPoint" />
          </mxGeometry>
        </mxCell>
        <mxCell id="nEV8NIuV4L0AE3yYRl37-49" style="edgeStyle=orthogonalEdgeStyle;rounded=0;orthogonalLoop=1;jettySize=auto;html=1;entryX=0;entryY=0.5;entryDx=0;entryDy=0;" edge="1" parent="WIyWlLk6GJQsqaUBKTNV-1" source="nEV8NIuV4L0AE3yYRl37-41" target="nEV8NIuV4L0AE3yYRl37-44">
          <mxGeometry relative="1" as="geometry" />
        </mxCell>
        <mxCell id="nEV8NIuV4L0AE3yYRl37-50" style="edgeStyle=orthogonalEdgeStyle;rounded=0;orthogonalLoop=1;jettySize=auto;html=1;exitX=0.5;exitY=1;exitDx=0;exitDy=0;" edge="1" parent="WIyWlLk6GJQsqaUBKTNV-1" source="nEV8NIuV4L0AE3yYRl37-41" target="nEV8NIuV4L0AE3yYRl37-43">
          <mxGeometry relative="1" as="geometry" />
        </mxCell>
        <mxCell id="nEV8NIuV4L0AE3yYRl37-41" value="Desea" style="rhombus;whiteSpace=wrap;html=1;" vertex="1" parent="WIyWlLk6GJQsqaUBKTNV-1">
          <mxGeometry x="325" y="505" width="110" height="80" as="geometry" />
        </mxCell>
        <mxCell id="nEV8NIuV4L0AE3yYRl37-43" value="Eliminar producto" style="rounded=1;whiteSpace=wrap;html=1;" vertex="1" parent="WIyWlLk6GJQsqaUBKTNV-1">
          <mxGeometry x="320" y="630" width="120" height="60" as="geometry" />
        </mxCell>
        <mxCell id="nEV8NIuV4L0AE3yYRl37-44" value="Editar un producto&amp;nbsp;" style="rounded=1;whiteSpace=wrap;html=1;" vertex="1" parent="WIyWlLk6GJQsqaUBKTNV-1">
          <mxGeometry x="500" y="515" width="120" height="60" as="geometry" />
        </mxCell>
        <mxCell id="nEV8NIuV4L0AE3yYRl37-45" value="Agregar" style="rounded=1;whiteSpace=wrap;html=1;" vertex="1" parent="WIyWlLk6GJQsqaUBKTNV-1">
          <mxGeometry x="150" y="515" width="120" height="60" as="geometry" />
        </mxCell>
        <mxCell id="nEV8NIuV4L0AE3yYRl37-58" style="edgeStyle=orthogonalEdgeStyle;rounded=0;orthogonalLoop=1;jettySize=auto;html=1;entryX=0.5;entryY=0;entryDx=0;entryDy=0;" edge="1" parent="WIyWlLk6GJQsqaUBKTNV-1" source="nEV8NIuV4L0AE3yYRl37-51" target="nEV8NIuV4L0AE3yYRl37-56">
          <mxGeometry relative="1" as="geometry" />
        </mxCell>
        <mxCell id="nEV8NIuV4L0AE3yYRl37-51" value="Registro de barberos&amp;nbsp;" style="rounded=1;whiteSpace=wrap;html=1;" vertex="1" parent="WIyWlLk6GJQsqaUBKTNV-1">
          <mxGeometry x="-235" y="370" width="120" height="60" as="geometry" />
        </mxCell>
        <mxCell id="nEV8NIuV4L0AE3yYRl37-53" value="Editar barberos&amp;nbsp;" style="rounded=1;whiteSpace=wrap;html=1;" vertex="1" parent="WIyWlLk6GJQsqaUBKTNV-1">
          <mxGeometry x="-60" y="515" width="120" height="60" as="geometry" />
        </mxCell>
        <mxCell id="nEV8NIuV4L0AE3yYRl37-54" value="Agregar barberos" style="rounded=1;whiteSpace=wrap;html=1;" vertex="1" parent="WIyWlLk6GJQsqaUBKTNV-1">
          <mxGeometry x="-400" y="515" width="120" height="60" as="geometry" />
        </mxCell>
        <mxCell id="nEV8NIuV4L0AE3yYRl37-55" value="Elimina&amp;nbsp; barberos" style="rounded=1;whiteSpace=wrap;html=1;" vertex="1" parent="WIyWlLk6GJQsqaUBKTNV-1">
          <mxGeometry x="-235" y="640" width="120" height="60" as="geometry" />
        </mxCell>
        <mxCell id="nEV8NIuV4L0AE3yYRl37-60" style="edgeStyle=orthogonalEdgeStyle;rounded=0;orthogonalLoop=1;jettySize=auto;html=1;entryX=1;entryY=0.5;entryDx=0;entryDy=0;" edge="1" parent="WIyWlLk6GJQsqaUBKTNV-1" source="nEV8NIuV4L0AE3yYRl37-56" target="nEV8NIuV4L0AE3yYRl37-54">
          <mxGeometry relative="1" as="geometry" />
        </mxCell>
        <mxCell id="nEV8NIuV4L0AE3yYRl37-61" style="edgeStyle=orthogonalEdgeStyle;rounded=0;orthogonalLoop=1;jettySize=auto;html=1;exitX=1;exitY=0.5;exitDx=0;exitDy=0;entryX=0;entryY=0.5;entryDx=0;entryDy=0;" edge="1" parent="WIyWlLk6GJQsqaUBKTNV-1" source="nEV8NIuV4L0AE3yYRl37-56" target="nEV8NIuV4L0AE3yYRl37-53">
          <mxGeometry relative="1" as="geometry" />
        </mxCell>
        <mxCell id="nEV8NIuV4L0AE3yYRl37-62" style="edgeStyle=orthogonalEdgeStyle;rounded=0;orthogonalLoop=1;jettySize=auto;html=1;exitX=0.5;exitY=1;exitDx=0;exitDy=0;" edge="1" parent="WIyWlLk6GJQsqaUBKTNV-1" source="nEV8NIuV4L0AE3yYRl37-56" target="nEV8NIuV4L0AE3yYRl37-55">
          <mxGeometry relative="1" as="geometry" />
        </mxCell>
        <mxCell id="nEV8NIuV4L0AE3yYRl37-56" value="Desea" style="rhombus;whiteSpace=wrap;html=1;" vertex="1" parent="WIyWlLk6GJQsqaUBKTNV-1">
          <mxGeometry x="-230" y="505" width="110" height="80" as="geometry" />
        </mxCell>
      </root>
    </mxGraphModel>
  </diagram>
</mxfile>
